# xmcd CD database file
#
# Track frame offsets:
#	150
#	16220
#	32892
#	52255
#	65487
#	81940
#	98982
#	110782
#	125225
#	144240
#	156332
#	166232
#	180150
#	194282
#	209160
#
# Disc length: 3021 seconds
#
# Revision: 0
# Processed by: cddbd v1.4PL0 Copyright (c) Steve Scherf et al.
# Submitted via: CDex 1.40Beta8
#
DISCID=dd0bcb0f
DTITLE=Jerry Lee Lewis - Jerry Lee Lewis the best of 
DYEAR=1998
DGENRE=Blues
TTITLE0=You win again
TTITLE1=What made Milwaukee famous
TTITLE2=What i say
TTITLE3=Meat man
TTITLE4=Harbor lights
TTITLE5=I can't stop loving you
TTITLE6=Your cheatin heart
TTITLE7=Big leg woman
TTITLE8=Whole lotta shakin'
TTITLE9=Great balls of fire
TTITLE10=Rockin' my life away
TTITLE11=Another place, another time
TTITLE12=Bottes and barstools
TTITLE13=You belong to me
TTITLE14=Who is going to play this ole piano
EXTD=YEAR: 1998 ID3G: 0
EXTT0=
EXTT1=
EXTT2=
EXTT3=
EXTT4=
EXTT5=
EXTT6=
EXTT7=
EXTT8=
EXTT9=
EXTT10=
EXTT11=
EXTT12=
EXTT13=
EXTT14=
PLAYORDER=
